<svg width="117" height="117" viewBox="0 0 117 117" fill="none" xmlns="http://www.w3.org/2000/svg">
<ellipse cx="58.2116" cy="58.045" rx="58.2116" ry="58.045" fill="#C1FF3E"/>
<path d="M48.0251 56.719H65.2849L60.0022 50.9349C59.7551 50.664 59.6363 50.3147 59.6718 49.9639C59.7073 49.6131 59.8942 49.2895 60.1913 49.0644C60.4885 48.8392 60.8717 48.7308 61.2565 48.7632C61.6413 48.7955 61.9963 48.9659 62.2433 49.2368L69.5198 57.1966C69.5687 57.2599 69.6125 57.3264 69.6508 57.3955C69.6508 57.4619 69.6508 57.5017 69.7526 57.568C69.8186 57.7201 69.8531 57.882 69.8545 58.0456C69.8531 58.2092 69.8186 58.3711 69.7526 58.5232C69.7526 58.5895 69.7526 58.6293 69.6508 58.6956C69.6125 58.7648 69.5687 58.8313 69.5198 58.8946L62.2433 66.8544C62.1065 67.0041 61.9351 67.1246 61.7415 67.2071C61.5478 67.2896 61.3365 67.3323 61.1227 67.332C60.7827 67.3326 60.4532 67.2246 60.1913 67.0268C60.044 66.9155 59.9222 66.7787 59.8329 66.6243C59.7436 66.47 59.6886 66.3011 59.671 66.1273C59.6535 65.9536 59.6737 65.7784 59.7305 65.6117C59.7873 65.4451 59.8796 65.2903 60.0022 65.1563L65.2849 59.3722H48.0251C47.6391 59.3722 47.269 59.2324 46.9961 58.9837C46.7231 58.7349 46.5698 58.3974 46.5698 58.0456C46.5698 57.6937 46.7231 57.3563 46.9961 57.1075C47.269 56.8587 47.6391 56.719 48.0251 56.719Z" fill="#494949"/>
</svg>
