<svg width="19" height="18" viewBox="0 0 19 18" fill="none" xmlns="http://www.w3.org/2000/svg">
    <path d="M1.99994 5.99997L1.29294 6.70697L0.585938 5.99997L1.29294 5.29297L1.99994 5.99997ZM6.99994 18C6.73472 18 6.48037 17.8946 6.29283 17.7071C6.10529 17.5195 5.99994 17.2652 5.99994 17C5.99994 16.7348 6.10529 16.4804 6.29283 16.2929C6.48037 16.1053 6.73472 16 6.99994 16V18ZM6.29294 11.707L1.29294 6.70697L2.70694 5.29297L7.70694 10.293L6.29294 11.707ZM1.29294 5.29297L6.29294 0.292969L7.70694 1.70697L2.70694 6.70697L1.29294 5.29297ZM1.99994 4.99997H12.4999V6.99997H1.99994V4.99997ZM12.4999 18H6.99994V16H12.4999V18ZM18.9999 11.5C18.9999 13.2239 18.3151 14.8772 17.0961 16.0962C15.8771 17.3151 14.2238 18 12.4999 18V16C13.0909 16 13.676 15.8836 14.222 15.6574C14.768 15.4313 15.2641 15.0998 15.6819 14.6819C16.0998 14.2641 16.4312 13.768 16.6574 13.222C16.8835 12.6761 16.9999 12.0909 16.9999 11.5H18.9999ZM12.4999 4.99997C14.2238 4.99997 15.8771 5.68479 17.0961 6.90377C18.3151 8.12276 18.9999 9.77606 18.9999 11.5H16.9999C16.9999 10.909 16.8835 10.3239 16.6574 9.77789C16.4312 9.23193 16.0998 8.73585 15.6819 8.31799C15.2641 7.90012 14.768 7.56866 14.222 7.34251C13.676 7.11636 13.0909 6.99997 12.4999 6.99997V4.99997Z" fill="#FF3E9B"/>
</svg>
