<svg width="50" height="50" viewBox="0 0 50 50" fill="none" xmlns="http://www.w3.org/2000/svg">
<circle cx="25" cy="25" r="25" fill="#C1FF3E"/>
<path d="M20.625 24.429H28.0375L25.7687 21.9378C25.6627 21.8211 25.6116 21.6707 25.6269 21.5196C25.6421 21.3685 25.7224 21.2291 25.85 21.1321C25.9776 21.0351 26.1422 20.9885 26.3075 21.0024C26.4727 21.0163 26.6252 21.0897 26.7313 21.2064L29.8562 24.6347C29.8773 24.6619 29.8961 24.6906 29.9125 24.7204C29.9125 24.749 29.9125 24.7661 29.9562 24.7947C29.9846 24.8602 29.9994 24.9299 30 25.0004C29.9994 25.0708 29.9846 25.1405 29.9562 25.2061C29.9562 25.2346 29.9563 25.2518 29.9125 25.2803C29.8961 25.3101 29.8773 25.3388 29.8562 25.366L26.7313 28.7943C26.6725 28.8588 26.5989 28.9107 26.5157 28.9462C26.4325 28.9818 26.3418 29.0001 26.25 29C26.104 29.0003 25.9624 28.9538 25.85 28.8686C25.7867 28.8206 25.7344 28.7617 25.6961 28.6952C25.6577 28.6287 25.6341 28.556 25.6265 28.4812C25.619 28.4063 25.6277 28.3309 25.6521 28.2591C25.6765 28.1873 25.7161 28.1207 25.7687 28.0629L28.0375 25.5717H20.625C20.4592 25.5717 20.3003 25.5115 20.1831 25.4044C20.0658 25.2972 20 25.1519 20 25.0004C20 24.8488 20.0658 24.7035 20.1831 24.5963C20.3003 24.4892 20.4592 24.429 20.625 24.429Z" fill="#494949"/>
</svg>
