<svg width="50" height="50" viewBox="0 0 50 50" fill="none" xmlns="http://www.w3.org/2000/svg">
<circle cx="25" cy="25" r="25" transform="matrix(-1 0 0 1 50 0)" fill="#C1FF3E"/>
<path d="M29.375 24.429H21.9625L24.2313 21.9378C24.3373 21.8211 24.3884 21.6707 24.3731 21.5196C24.3579 21.3685 24.2776 21.2291 24.15 21.1321C24.0224 21.0351 23.8578 20.9885 23.6925 21.0024C23.5273 21.0163 23.3748 21.0897 23.2687 21.2064L20.1438 24.6347C20.1227 24.6619 20.1039 24.6906 20.0875 24.7204C20.0875 24.749 20.0875 24.7661 20.0438 24.7947C20.0154 24.8602 20.0006 24.9299 20 25.0004C20.0006 25.0708 20.0154 25.1405 20.0438 25.2061C20.0438 25.2346 20.0437 25.2518 20.0875 25.2803C20.1039 25.3101 20.1227 25.3388 20.1438 25.366L23.2687 28.7943C23.3275 28.8588 23.4011 28.9107 23.4843 28.9462C23.5675 28.9818 23.6582 29.0001 23.75 29C23.896 29.0003 24.0376 28.9538 24.15 28.8686C24.2133 28.8206 24.2656 28.7617 24.3039 28.6952C24.3423 28.6287 24.3659 28.556 24.3735 28.4812C24.381 28.4063 24.3723 28.3309 24.3479 28.2591C24.3235 28.1873 24.2839 28.1207 24.2313 28.0629L21.9625 25.5717H29.375C29.5408 25.5717 29.6997 25.5115 29.8169 25.4044C29.9342 25.2972 30 25.1519 30 25.0004C30 24.8488 29.9342 24.7035 29.8169 24.5963C29.6997 24.4892 29.5408 24.429 29.375 24.429Z" fill="#494949"/>
</svg>
