<svg width="23" height="22" viewBox="0 0 23 22" fill="current" xmlns="http://www.w3.org/2000/svg">
    <path d="M16.9414 13.918H15.8914L15.5192 13.5764C16.3499 12.6579 16.9569 11.576 17.297 10.4081C17.6371 9.24021 17.7017 8.01521 17.4863 6.82075C16.8616 3.30375 13.778 0.495213 10.0564 0.0650767C8.74804 -0.0924725 7.41913 0.0369554 6.17138 0.443456C4.92363 0.849958 3.79012 1.52276 2.85757 2.41037C1.92503 3.29799 1.21817 4.3769 0.791098 5.56453C0.364021 6.75217 0.228042 8.01706 0.393566 9.26241C0.845474 12.8047 3.79617 15.7398 7.49119 16.3344C8.7461 16.5394 10.0331 16.4778 11.2601 16.1541C12.4871 15.8305 13.6238 15.2526 14.5888 14.462L14.9477 14.8162V15.8157L20.5965 21.1924C21.1415 21.7111 22.032 21.7111 22.577 21.1924C23.1219 20.6737 23.1219 19.8261 22.577 19.3074L16.9414 13.918ZM8.96653 13.918C5.65697 13.918 2.98539 11.3751 2.98539 8.22502C2.98539 5.0749 5.65697 2.53204 8.96653 2.53204C12.2761 2.53204 14.9477 5.0749 14.9477 8.22502C14.9477 11.3751 12.2761 13.918 8.96653 13.918Z" fill="#AFAFAF"/>
</svg>
