<?xml version="1.0" encoding="UTF-8"?>
<svg viewBox="0 0 50 50" xmlns="http://www.w3.org/2000/svg">
<circle cx="25" cy="25" r="25" fill="#C1FF3E"/>
<path d="m20.625 24.429h7.4125l-2.2688-2.4912c-0.106-0.1167-0.1571-0.2671-0.1418-0.4182 0.0152-0.1511 0.0955-0.2905 0.2231-0.3875s0.2922-0.1436 0.4575-0.1297c0.1652 0.0139 0.3177 0.0873 0.4238 0.204l3.1249 3.4283c0.0211 0.0272 0.0399 0.0559 0.0563 0.0857 0 0.0286 0 0.0457 0.0437 0.0743 0.0284 0.0655 0.0432 0.1352 0.0438 0.2057-6e-4 0.0704-0.0154 0.1401-0.0438 0.2057 0 0.0285 1e-4 0.0457-0.0437 0.0742-0.0164 0.0298-0.0352 0.0585-0.0563 0.0857l-3.1249 3.4283c-0.0588 0.0645-0.1324 0.1164-0.2156 0.1519-0.0832 0.0356-0.1739 0.0539-0.2657 0.0538-0.146 3e-4 -0.2876-0.0462-0.4-0.1314-0.0633-0.048-0.1156-0.1069-0.1539-0.1734-0.0384-0.0665-0.062-0.1392-0.0696-0.214-0.0075-0.0749 0.0012-0.1503 0.0256-0.2221s0.064-0.1384 0.1166-0.1962l2.2688-2.4912h-7.4125c-0.1658 0-0.3247-0.0602-0.4419-0.1673-0.1173-0.1072-0.1831-0.2525-0.1831-0.404 0-0.1516 0.0658-0.2969 0.1831-0.4041 0.1172-0.1071 0.2761-0.1673 0.4419-0.1673z" fill="#494949"/>
</svg>
